<svg id="Layer_1" data-name="Layer 1" xmlns="http://www.w3.org/2000/svg" viewBox="0 0 2048 512"><rect x="438" width="1610" height="512" style="fill:#fff"/><rect width="368" height="512" style="fill:#b8e4ff"/><rect x="368" width="70" height="512" style="fill:#262a33"/><path d="M731,318.88q-4.5,4.83-13.43,10.19a90.83,90.83,0,0,1-22.41,9.11q-13.49,3.74-31.69,3.74-22.59,0-39.35-9.5t-26-27.89q-9.29-18.37-9.28-44.89V252q0-26.62,9.33-45.06t25.7-28q16.36-9.57,37.34-9.56,23.61,0,38.37,7.43t22.24,20.68a75.62,75.62,0,0,1,9.1,30.54h-41.6a36.55,36.55,0,0,0-4-13.37,19.17,19.17,0,0,0-8.41-7.95q-5.42-2.64-14.17-2.65a25.63,25.63,0,0,0-15.85,5.07q-6.73,5.07-10.43,15.62t-3.69,27v7.83q0,16.14,3.52,26.68t11,15.67q7.5,5.13,19.36,5.13a49.58,49.58,0,0,0,10-.86,33,33,0,0,0,6.86-2.14,18.57,18.57,0,0,0,4.26-2.53V278.77H661.5V248.12H731Z" style="fill:#262a33"/><path d="M896.81,258.26q0,26-9.51,44.77t-26.21,28.81q-16.71,10.08-38.26,10.08-21.78,0-38.6-10.08T757.9,303q-9.51-18.72-9.51-44.77v-4.95q0-26,9.45-44.77t26.21-28.87q16.77-10.14,38.55-10.14,21.55,0,38.32,10.14t26.33,28.87q9.56,18.72,9.56,44.77Zm-43.9-5.18q0-15.92-3.52-26.62t-10.31-16.14a25.63,25.63,0,0,0-16.48-5.41q-10.14,0-16.82,5.41t-10,16.14q-3.35,10.71-3.34,26.62v5.18q0,15.56,3.4,26.39T806,301.07q6.74,5.6,16.88,5.59a24.85,24.85,0,0,0,16.42-5.59q6.75-5.58,10.2-16.42t3.46-26.39Z" style="fill:#262a33"/><path d="M943.48,285V250.08h40.91q7.83,0,12.68-2.54a16.27,16.27,0,0,0,7.14-7,21.71,21.71,0,0,0,2.3-10.19,29.35,29.35,0,0,0-2.3-11.64,19.61,19.61,0,0,0-7.14-8.7q-4.85-3.28-12.68-3.29H959.61V339.62H916.29V171.84h68.1q20.4,0,35.2,7.6a54.82,54.82,0,0,1,30.83,50.7q0,16.37-8,28.7t-22.82,19.24q-14.8,6.92-35.2,6.92Z" style="fill:#262a33"/><path d="M1114.26,339.62h-43.33V171.84h43.33Zm69.6-68h-84v-34.8h84Zm29,68h-43.1V171.84h43.1Z" style="fill:#262a33"/><path d="M1282.5,339.62h-43.1V171.84h43.1Z" style="fill:#262a33"/><path d="M1447.86,318.88q-4.48,4.83-13.42,10.19a91.07,91.07,0,0,1-22.42,9.11q-13.47,3.74-31.69,3.74-22.57,0-39.35-9.5t-26-27.89q-9.29-18.37-9.28-44.89V252q0-26.62,9.34-45.06t25.69-28q16.36-9.57,37.34-9.56,23.63,0,38.37,7.43t22.24,20.68a75.62,75.62,0,0,1,9.11,30.54h-41.6a36.54,36.54,0,0,0-4-13.37,19.11,19.11,0,0,0-8.41-7.95q-5.42-2.64-14.17-2.65a25.65,25.65,0,0,0-15.85,5.07q-6.73,5.07-10.43,15.62t-3.68,27v7.83q0,16.14,3.51,26.68t11,15.67q7.48,5.13,19.36,5.13a49.47,49.47,0,0,0,10-.86,32.81,32.81,0,0,0,6.86-2.14,18.35,18.35,0,0,0,4.26-2.53V278.77h-26.15V248.12h69.48Z" style="fill:#262a33"/><path d="M1602.85,171.84V280.5q0,19.83-8.24,33.54a52.68,52.68,0,0,1-23.16,20.79q-14.92,7.1-35.09,7.09-19.93,0-35.09-7.09A53.48,53.48,0,0,1,1477.71,314q-8.42-13.73-8.41-33.54V171.84h43.44V280.5q0,9.57,2.65,15.44a16.93,16.93,0,0,0,7.95,8.53,28.85,28.85,0,0,0,13,2.65q7.85,0,13-2.65a16.86,16.86,0,0,0,7.72-8.53q2.6-5.87,2.59-15.44V171.84Z" style="fill:#262a33"/><path d="M1693.77,171.84q19.71,0,34.11,5.82t22.24,17.11q7.85,11.29,7.84,28,0,15-4.44,24.72a41.79,41.79,0,0,1-12.33,15.9,78.35,78.35,0,0,1-18.49,10.54l-14.18,8.65h-54.73l-.23-34.92h39.75a27.52,27.52,0,0,0,11.93-2.3,15.33,15.33,0,0,0,7.14-6.86,24.12,24.12,0,0,0,2.37-11.24q0-9.67-5.31-15.09t-15.67-5.42h-23.85V339.62h-43.21V171.84Zm-13,93.91,45.86-.34,36.88,72.36v1.85h-46.32Z" style="fill:#262a33"/><path d="M1824,339.62h-43.33V171.84H1824Zm73.63-132.87h-89V171.84h89Zm-11.75,63.61h-77.21V236.83h77.21Zm11.41,69.26h-88.62v-34.8h88.62Z" style="fill:#262a33"/><path d="M123.07,242.46q-2.44-2.58-5-5C83.92,205.18,36.51,202.76,0,222.29v206l70.14-15.93C147.18,394.82,177.35,299.85,123.07,242.46Z" style="fill:#98ceea"/><path d="M114.7,0H0V38.34L70.08,22.43A102.41,102.41,0,0,0,114.7,0Z" style="fill:#98ceea"/><path d="M276.23,168.6a19.12,19.12,0,0,0,22.88,22.87L368,175.82V0H324.33a102.55,102.55,0,0,0-19,40.4Z" style="fill:#98ceea"/><path d="M368,357.29a102.44,102.44,0,0,0-62.7,73.11L286.76,512H368Z" style="fill:#98ceea"/></svg>