<svg id="Layer_1" data-name="Layer 1" xmlns="http://www.w3.org/2000/svg" viewBox="0 0 2048 512"><rect width="2048" height="512" style="fill:#fff"/><rect width="368" height="512" style="fill:#b8e4ff"/><rect x="368" width="70" height="512" style="fill:#262a33"/><path d="M649.08,278.18a51,51,0,0,1-7.93,26.25,49.7,49.7,0,0,1-20.35,17.74q-13,6.38-30.6,6.38-19.05,0-32.58-8.36A53.26,53.26,0,0,1,537,296.26q-7.11-15.57-7.11-37.13v-5.7q0-21.66,7.45-37.22t20.83-24q13.4-8.4,31.47-8.41,18.75,0,31.57,6.77A49.44,49.44,0,0,1,641,209.05a60.63,60.63,0,0,1,8.27,26.4H613.11q-.2-11-5.31-16.44t-18.18-5.41q-7.83,0-12.91,3.72t-7.54,12.38q-2.46,8.64-2.46,23.54v5.89q0,15,2.17,23.64t7.35,12.33q5.17,3.67,14,3.67a31.68,31.68,0,0,0,12.28-2.12,15.74,15.74,0,0,0,7.68-6.67c1.78-3,2.69-7,2.76-11.8Z" style="fill:#262a33"/><path d="M784.53,258.36q0,21.86-8,37.56a58.27,58.27,0,0,1-22,24.17q-14,8.46-32.1,8.46-18.27,0-32.39-8.46A58,58,0,0,1,668,295.92q-8-15.71-8-37.56V254.2q0-21.84,7.93-37.56a58.16,58.16,0,0,1,22-24.21q14.07-8.52,32.34-8.51,18.09,0,32.15,8.51a58.78,58.78,0,0,1,22.09,24.21q8,15.72,8,37.56ZM747.69,254q0-13.33-3-22.33t-8.65-13.54a21.49,21.49,0,0,0-13.83-4.54q-8.5,0-14.11,4.54t-8.41,13.54q-2.81,9-2.81,22.33v4.35q0,13,2.86,22.14t8.5,13.78q5.65,4.68,14.17,4.69a20.89,20.89,0,0,0,13.77-4.69q5.65-4.69,8.56-13.78t2.9-22.14Z" style="fill:#262a33"/><path d="M919.78,326.62H883.62l-46.5-81.41v81.41H800.86V185.85h36.26l46.5,81.41V185.85h36.16Z" style="fill:#262a33"/><path d="M1051.75,215.15H933.22v-29.3h118.53Zm-41.57,111.47H973.92V185.85h36.26Z" style="fill:#262a33"/><path d="M1121.65,185.85q16.53,0,28.62,4.88t18.65,14.36q6.58,9.48,6.58,23.49,0,12.57-3.72,20.74a35,35,0,0,1-10.35,13.34,65.84,65.84,0,0,1-15.52,8.85L1134,278.76H1088.1l-.19-29.29h33.35a23,23,0,0,0,10-1.94,12.81,12.81,0,0,0,6-5.75,20.31,20.31,0,0,0,2-9.43q0-8.11-4.44-12.66t-13.15-4.54h-20V326.62h-36.25V185.85Zm-10.93,78.8,38.48-.29,30.94,60.71v1.55h-38.87Z" style="fill:#262a33"/><path d="M1232.93,326.62h-36.16V185.85h36.16Z" style="fill:#262a33"/><path d="M1277.69,268.32l-.19-24.46h28.9q11.31,0,15.86-3.43t4.54-10.3q0-8.12-4.74-11.55t-15.37-3.43h-15.27V326.62h-36.35V185.85h51.62q26.49,0,41.43,9.72t14.94,29.53a37.27,37.27,0,0,1-3.68,16.29q-3.68,7.7-12.42,12.43t-24,4.64l-9.47,9.86Zm-8.8,58.3,12.38-29.2h30.84q9.77,0,13.63-4.06a13.19,13.19,0,0,0,3.87-9.38,20.13,20.13,0,0,0-1.6-8.41,11.27,11.27,0,0,0-5.12-5.36,20.06,20.06,0,0,0-9.43-1.89h-29l.19-24.46h34.22l8.51,10q14.59-1,23,3.53a26.43,26.43,0,0,1,11.89,11.89,35.08,35.08,0,0,1,3.53,15.32q0,21-13.53,31.52t-40.12,10.54Z" style="fill:#262a33"/><path d="M1495.22,185.85V277q0,16.64-6.91,28.13a44.26,44.26,0,0,1-19.44,17.46q-12.51,5.94-29.44,5.94-16.73,0-29.43-5.94a45,45,0,0,1-19.78-17.46q-7-11.5-7-28.13V185.85h36.45V277q0,8,2.22,13a14.18,14.18,0,0,0,6.67,7.15,24.29,24.29,0,0,0,10.92,2.22,23.61,23.61,0,0,0,10.88-2.22,14.14,14.14,0,0,0,6.48-7.15Q1459,285,1459,277V185.85Z" style="fill:#262a33"/><path d="M1627.09,215.15H1508.56v-29.3h118.53Zm-41.57,111.47h-36.26V185.85h36.26Z" style="fill:#262a33"/><path d="M1679,326.62h-36.16V185.85H1679Z" style="fill:#262a33"/><path d="M1820.06,326.62H1783.9l-46.5-81.41v81.41h-36.25V185.85h36.25l46.5,81.41V185.85h36.16Z" style="fill:#262a33"/><path d="M1956.67,309.21a52.07,52.07,0,0,1-11.26,8.56,76.69,76.69,0,0,1-18.81,7.64,100.11,100.11,0,0,1-26.58,3.14q-19,0-33-8a54.1,54.1,0,0,1-21.85-23.39q-7.79-15.42-7.78-37.66v-6.38q0-22.33,7.83-37.8t21.56-23.49q13.73-8,31.32-8,19.82,0,32.2,6.24a43,43,0,0,1,18.66,17.35,63.51,63.51,0,0,1,7.63,25.62h-34.9a30.76,30.76,0,0,0-3.38-11.21,16,16,0,0,0-7.06-6.67q-4.55-2.24-11.89-2.23a21.47,21.47,0,0,0-13.29,4.26q-5.65,4.24-8.75,13.1T1874.2,253v6.57q0,13.55,3,22.38t9.23,13.15q6.28,4.31,16.25,4.3a41.48,41.48,0,0,0,8.36-.72,27.82,27.82,0,0,0,5.75-1.79,15.81,15.81,0,0,0,3.58-2.13V275.57h-22V249.85h58.3Z" style="fill:#262a33"/><path d="M123.07,242.46q-2.44-2.58-5-5C83.92,205.18,36.51,202.76,0,222.29v206l70.14-15.93C147.18,394.82,177.35,299.85,123.07,242.46Z" style="fill:#98ceea"/><path d="M114.7,0H0V38.34L70.08,22.43A102.41,102.41,0,0,0,114.7,0Z" style="fill:#98ceea"/><path d="M276.23,168.6a19.12,19.12,0,0,0,22.88,22.87L368,175.82V0H324.33a102.55,102.55,0,0,0-19,40.4Z" style="fill:#98ceea"/><path d="M368,357.29a102.44,102.44,0,0,0-62.7,73.11L286.76,512H368Z" style="fill:#98ceea"/></svg>